<svg width="32" height="22" viewBox="0 0 32 22" fill="none" xmlns="http://www.w3.org/2000/svg">
<path fill-rule="evenodd" clip-rule="evenodd" d="M31.234 3.55501C31.2301 2.93829 30.9958 2.34532 30.577 1.89253C30.5702 1.88427 30.565 1.87485 30.5615 1.86473C30.5544 1.85762 30.5441 1.85504 30.5363 1.84726C30.0617 1.34708 29.4023 1.06394 28.7128 1.06421H3.75455C3.06437 1.06444 2.40442 1.34744 1.92847 1.84726C1.92073 1.85504 1.91102 1.85762 1.90585 1.86733C1.89926 1.87563 1.89421 1.88504 1.89095 1.89512C1.47126 2.34627 1.23674 2.93884 1.23401 3.55501V18.2378C1.23548 18.8699 1.48077 19.477 1.91878 19.9326C1.9243 19.9435 1.93101 19.9537 1.93878 19.963C1.94138 19.9656 1.94655 19.9656 1.94849 19.9701C2.42319 20.457 3.07453 20.7312 3.75449 20.7306H28.7128C29.393 20.7305 30.0443 20.4556 30.5188 19.9682L30.5291 19.963C30.5362 19.9552 30.5388 19.943 30.5491 19.9352C30.9865 19.4781 31.2316 18.8705 31.2339 18.2378L31.234 3.55501ZM21.4131 10.1221L30.0591 2.95365C30.1462 3.14224 30.1919 3.3473 30.193 3.55501V18.2378C30.1923 18.4265 30.1554 18.6133 30.0844 18.7881L21.4131 10.1221ZM28.7128 2.09233C28.9229 2.09267 29.1304 2.1374 29.322 2.2236L16.2324 13.0746L3.14607 2.2236C3.33735 2.13734 3.54474 2.0926 3.75457 2.09233H28.7128ZM2.38306 18.7881C2.31023 18.6138 2.27244 18.4268 2.27185 18.2378V3.55501C2.27291 3.347 2.31948 3.14175 2.40828 2.95365L11.0549 10.1221L2.38306 18.7881ZM3.75457 19.7024C3.52373 19.7003 3.29648 19.645 3.09048 19.5408L11.8528 10.7836L15.8994 14.1383C16.0924 14.2995 16.3731 14.2995 16.566 14.1383L20.6152 10.7836L29.3769 19.5408C29.171 19.645 28.9437 19.7004 28.7128 19.7024H3.75457Z" fill="#F9572E"/>
<path d="M31.234 3.55501L31.584 3.55501L31.584 3.55278L31.234 3.55501ZM30.577 1.89253L30.3067 2.11486L30.3132 2.12271L30.3201 2.13017L30.577 1.89253ZM30.5615 1.86473L30.8927 1.75149L30.8664 1.67466L30.809 1.61724L30.5615 1.86473ZM30.5363 1.84726L30.2823 2.08825L30.2887 2.09459L30.5363 1.84726ZM28.7128 1.06421V1.41421L28.713 1.41421L28.7128 1.06421ZM3.75455 1.06421V0.714209L3.75443 0.714209L3.75455 1.06421ZM1.92847 1.84726L2.17665 2.09417L2.18193 2.08862L1.92847 1.84726ZM1.90585 1.86733L2.17988 2.08505L2.19977 2.06003L2.21479 2.03182L1.90585 1.86733ZM1.89095 1.89512L2.14721 2.13351L2.20006 2.0767L2.22395 2.00287L1.89095 1.89512ZM1.23401 3.55501L0.884009 3.55346V3.55501H1.23401ZM1.23401 18.2378H0.884008L0.88401 18.2387L1.23401 18.2378ZM1.91878 19.9326L2.23063 19.7737L2.20707 19.7275L2.17111 19.6901L1.91878 19.9326ZM1.93878 19.963L1.66948 20.1866L1.6807 20.2001L1.69322 20.2124L1.93878 19.963ZM1.94849 19.9701L1.62664 20.1077L1.6523 20.1677L1.6979 20.2145L1.94849 19.9701ZM3.75449 20.7306V20.3806H3.75415L3.75449 20.7306ZM28.7128 20.7306V21.0806H28.7128L28.7128 20.7306ZM30.5188 19.9682L30.3625 19.655L30.3094 19.6815L30.268 19.724L30.5188 19.9682ZM30.5291 19.963L30.6854 20.2762L30.7437 20.2471L30.7876 20.199L30.5291 19.963ZM30.5491 19.9352L30.7597 20.2148L30.7824 20.1977L30.802 20.1772L30.5491 19.9352ZM31.2339 18.2378L31.5839 18.2391V18.2378L31.2339 18.2378ZM21.4131 10.1221L21.1898 9.85266L20.8939 10.098L21.1657 10.3697L21.4131 10.1221ZM30.0591 2.95365L30.3769 2.80694L30.1861 2.39371L29.8358 2.68421L30.0591 2.95365ZM30.193 3.55501H30.543L30.543 3.55311L30.193 3.55501ZM30.193 18.2378L30.543 18.2391V18.2378H30.193ZM30.0844 18.7881L29.837 19.0357L30.21 19.4085L30.4086 18.9199L30.0844 18.7881ZM28.7128 2.09233L28.7134 1.74233H28.7128V2.09233ZM29.322 2.2236L29.5453 2.49305L29.9775 2.1348L29.4656 1.90443L29.322 2.2236ZM16.2324 13.0746L16.009 13.344L16.2324 13.5292L16.4558 13.3441L16.2324 13.0746ZM3.14607 2.2236L3.00219 1.90454L2.49097 2.13507L2.92266 2.49303L3.14607 2.2236ZM3.75457 2.09233V1.74233L3.75411 1.74233L3.75457 2.09233ZM2.38306 18.7881L2.0601 18.923L2.26127 19.4046L2.63046 19.0357L2.38306 18.7881ZM2.27185 18.2378H1.92185L1.92185 18.2389L2.27185 18.2378ZM2.27185 3.55501L1.92185 3.55322V3.55501H2.27185ZM2.40828 2.95365L2.63166 2.6842L2.28437 2.39628L2.09178 2.80423L2.40828 2.95365ZM11.0549 10.1221L11.3023 10.3697L11.5742 10.098L11.2783 9.85265L11.0549 10.1221ZM3.75457 19.7024L3.75131 20.0524H3.75457V19.7024ZM3.09048 19.5408L2.84306 19.2932L2.50115 19.6349L2.93251 19.8531L3.09048 19.5408ZM11.8528 10.7836L12.0762 10.5141L11.8309 10.3107L11.6054 10.536L11.8528 10.7836ZM15.8994 14.1383L16.1238 13.8697L16.1228 13.8688L15.8994 14.1383ZM16.566 14.1383L16.3428 13.8687L16.3417 13.8697L16.566 14.1383ZM20.6152 10.7836L20.8626 10.536L20.6373 10.3108L20.3919 10.5141L20.6152 10.7836ZM29.3769 19.5408L29.535 19.853L29.9661 19.6348L29.6244 19.2932L29.3769 19.5408ZM28.7128 19.7024V20.0524L28.716 20.0524L28.7128 19.7024ZM31.584 3.55278C31.5795 2.84873 31.312 2.17179 30.834 1.65489L30.3201 2.13017C30.6795 2.51884 30.8807 3.02784 30.884 3.55723L31.584 3.55278ZM30.8473 1.67019C30.8672 1.69437 30.8826 1.72191 30.8927 1.75149L30.2303 1.97797C30.2474 2.02779 30.2732 2.07416 30.3067 2.11486L30.8473 1.67019ZM30.809 1.61724C30.7848 1.59308 30.7619 1.57673 30.7468 1.56692C30.7393 1.56199 30.7329 1.55816 30.7287 1.55574C30.7249 1.55355 30.7213 1.55149 30.7211 1.55136C30.7199 1.55072 30.7216 1.55165 30.7239 1.553C30.7264 1.55449 30.7309 1.55721 30.7365 1.56094C30.7478 1.56849 30.7652 1.58118 30.7839 1.59993L30.2887 2.09459C30.3113 2.11722 30.3329 2.13316 30.3485 2.1436C30.3563 2.14878 30.363 2.15286 30.3678 2.15566C30.3723 2.15832 30.3762 2.16052 30.3773 2.16113C30.3793 2.16225 30.3778 2.16144 30.3762 2.16052C30.3743 2.15937 30.37 2.15684 30.3645 2.15327C30.3536 2.14618 30.3346 2.13283 30.314 2.11222L30.809 1.61724ZM30.7902 1.60634C30.2494 1.03648 29.4983 0.713908 28.7127 0.714209L28.713 1.41421C29.3064 1.41398 29.8739 1.65767 30.2824 2.08817L30.7902 1.60634ZM28.7128 0.714209H3.75455V1.41421H28.7128V0.714209ZM3.75443 0.714209C2.96849 0.714475 2.21699 1.03673 1.675 1.6059L2.18193 2.08862C2.59185 1.65814 3.16024 1.41441 3.75467 1.41421L3.75443 0.714209ZM1.68034 1.60041C1.69727 1.5834 1.71223 1.57232 1.71876 1.56765C1.72181 1.56547 1.72412 1.56393 1.72322 1.56453C1.72322 1.56453 1.72191 1.56541 1.72087 1.56613C1.71961 1.56698 1.71767 1.56831 1.71537 1.56992C1.69735 1.58254 1.63877 1.62421 1.59691 1.70284L2.21479 2.03182C2.17809 2.10074 2.12696 2.13626 2.11702 2.14322C2.11505 2.14461 2.11305 2.14594 2.11533 2.1444C2.11651 2.14361 2.1209 2.14064 2.12604 2.13697C2.13672 2.12933 2.1558 2.11501 2.17659 2.09411L1.68034 1.60041ZM1.63181 1.6496C1.59914 1.69073 1.57412 1.7374 1.55795 1.78737L2.22395 2.00287C2.2143 2.03268 2.19938 2.06052 2.17988 2.08505L1.63181 1.6496ZM1.63469 1.65673C1.15512 2.17225 0.887128 2.84937 0.884012 3.55346L1.58401 3.55656C1.58634 3.02831 1.7874 2.52029 2.14721 2.13351L1.63469 1.65673ZM0.884009 3.55501V18.2378H1.58401V3.55501H0.884009ZM0.88401 18.2387C0.88569 18.9608 1.16597 19.6545 1.66645 20.1752L2.17111 19.6901C1.79557 19.2994 1.58527 18.7789 1.58401 18.237L0.88401 18.2387ZM1.60693 20.0915C1.6242 20.1254 1.64518 20.1573 1.66948 20.1866L2.20808 19.7395C2.21684 19.75 2.2244 19.7615 2.23063 19.7737L1.60693 20.0915ZM1.69322 20.2124C1.73356 20.2521 1.77373 20.2723 1.7873 20.279C1.79143 20.281 1.79486 20.2826 1.79707 20.2836C1.79917 20.2845 1.80092 20.2853 1.80118 20.2854C1.80306 20.2862 1.79835 20.2842 1.79319 20.2817C1.78274 20.2768 1.75257 20.262 1.71985 20.2341C1.68387 20.2036 1.64967 20.1615 1.62664 20.1077L2.27034 19.8326C2.24634 19.7764 2.21077 19.7327 2.17319 19.7008C2.13887 19.6716 2.10688 19.6558 2.09458 19.6499C2.09112 19.6483 2.08827 19.647 2.08654 19.6462C2.08566 19.6458 2.08493 19.6455 2.08449 19.6453C2.08427 19.6452 2.08408 19.6451 2.08397 19.6451C2.08392 19.6451 2.08386 19.645 2.08384 19.645C2.0838 19.645 2.0838 19.645 2.08379 19.645C2.0828 19.6446 2.08833 19.647 2.09494 19.6502C2.10675 19.656 2.1453 19.6752 2.18434 19.7136L1.69322 20.2124ZM1.6979 20.2145C2.23855 20.7689 2.98039 21.0813 3.75482 21.0806L3.75415 20.3806C3.16867 20.3811 2.60782 20.145 2.19908 19.7258L1.6979 20.2145ZM3.75449 21.0806H28.7128V20.3806H3.75449V21.0806ZM28.7128 21.0806C29.4874 21.0805 30.2292 20.7674 30.7695 20.2123L30.268 19.724C29.8594 20.1438 29.2985 20.3805 28.7127 20.3806L28.7128 21.0806ZM30.675 20.2814L30.6854 20.2762L30.3729 19.6498L30.3625 19.655L30.675 20.2814ZM30.7876 20.199C30.8003 20.1851 30.8103 20.172 30.8178 20.1613C30.8253 20.1507 30.831 20.1414 30.8348 20.135C30.8385 20.1288 30.8414 20.1235 30.8425 20.1216C30.8443 20.1183 30.8433 20.1202 30.8428 20.121C30.8413 20.1237 30.8336 20.1374 30.8209 20.154C30.8074 20.1718 30.7875 20.1938 30.7597 20.2148L30.3385 19.6557C30.2733 19.7048 30.2412 19.7628 30.233 19.7772C30.2318 19.7793 30.2309 19.7811 30.2303 19.7822C30.23 19.7828 30.2297 19.7833 30.2295 19.7835C30.2293 19.7839 30.2293 19.784 30.2292 19.7841C30.2289 19.7847 30.2305 19.7818 30.2327 19.778C30.237 19.7708 30.2495 19.7502 30.2706 19.7271L30.7876 20.199ZM30.802 20.1772C31.3014 19.6553 31.5813 18.9615 31.5839 18.2391L30.8839 18.2366C30.882 18.7795 30.6716 19.301 30.2962 19.6932L30.802 20.1772ZM31.5839 18.2378L31.584 3.55501L30.884 3.55501L30.8839 18.2378L31.5839 18.2378ZM21.6365 10.3915L30.2825 3.22309L29.8358 2.68421L21.1898 9.85266L21.6365 10.3915ZM29.7414 3.10036C29.8075 3.24353 29.8421 3.39921 29.843 3.55691L30.543 3.55311C30.5416 3.29538 30.485 3.04094 30.3769 2.80694L29.7414 3.10036ZM29.843 3.55501V18.2378H30.543V3.55501H29.843ZM29.843 18.2366C29.8425 18.3805 29.8143 18.523 29.7601 18.6563L30.4086 18.9199C30.4965 18.7037 30.5421 18.4726 30.543 18.2391L29.843 18.2366ZM30.3318 18.5406L21.6606 9.87454L21.1657 10.3697L29.837 19.0357L30.3318 18.5406ZM28.7123 2.44233C28.873 2.44259 29.0318 2.47682 29.1783 2.54277L29.4656 1.90443C29.2291 1.79799 28.9728 1.74275 28.7134 1.74233L28.7123 2.44233ZM29.0986 1.95415L16.009 12.8051L16.4558 13.3441L29.5453 2.49305L29.0986 1.95415ZM16.4558 12.8052L3.36947 1.95417L2.92266 2.49303L16.009 13.344L16.4558 12.8052ZM3.28994 2.54266C3.43614 2.47673 3.59465 2.44254 3.75503 2.44233L3.75411 1.74233C3.49483 1.74267 3.23856 1.79795 3.00219 1.90454L3.28994 2.54266ZM3.75457 2.44233H28.7128V1.74233L3.75457 1.74233V2.44233ZM2.70602 18.6532C2.6509 18.5213 2.6223 18.3797 2.62185 18.2367L1.92185 18.2389C1.92259 18.4738 1.96956 18.7063 2.0601 18.923L2.70602 18.6532ZM2.62185 18.2378V3.55501H1.92185V18.2378H2.62185ZM2.62184 3.5568C2.62265 3.39986 2.65778 3.24499 2.72478 3.10307L2.09178 2.80423C1.98117 3.03851 1.92318 3.29415 1.92185 3.55322L2.62184 3.5568ZM2.1849 3.22309L10.8315 10.3915L11.2783 9.85265L2.63166 2.6842L2.1849 3.22309ZM10.8075 9.87453L2.13565 18.5406L2.63046 19.0357L11.3023 10.3697L10.8075 9.87453ZM3.75783 19.3524C3.58076 19.3508 3.40646 19.3084 3.24845 19.2284L2.93251 19.8531C3.18651 19.9816 3.46669 20.0498 3.75131 20.0524L3.75783 19.3524ZM3.33789 19.7883L12.1003 11.0311L11.6054 10.536L2.84306 19.2932L3.33789 19.7883ZM11.6295 11.053L15.676 14.4077L16.1228 13.8688L12.0762 10.5141L11.6295 11.053ZM15.675 14.4069C15.9979 14.6766 16.4676 14.6766 16.7904 14.4069L16.3417 13.8697C16.2786 13.9223 16.1869 13.9223 16.1238 13.8697L15.675 14.4069ZM16.7893 14.4078L20.8385 11.0531L20.3919 10.5141L16.3428 13.8687L16.7893 14.4078ZM20.3678 11.0311L29.1295 19.7883L29.6244 19.2932L20.8626 10.536L20.3678 11.0311ZM29.2189 19.2285C29.0609 19.3084 28.8867 19.3509 28.7097 19.3524L28.716 20.0524C29.0007 20.0499 29.281 19.9816 29.535 19.853L29.2189 19.2285ZM28.7128 19.3524H3.75457V20.0524H28.7128V19.3524Z" fill="#F9572E"/>
</svg>
