<svg width="29" height="18" viewBox="0 0 29 18" fill="none" xmlns="http://www.w3.org/2000/svg">
<path d="M28.3752 15.6438C28.3463 15.5803 28.314 15.5183 28.2785 15.4582C27.5004 14.2328 26.546 13.1288 25.4461 12.1817L25.417 12.1514L25.4017 12.1371L25.3867 12.1221H25.3724C24.7397 11.5188 24.3392 11.1135 24.1709 10.9063C23.8758 10.5794 23.7949 10.112 23.963 9.70489C24.3383 9.01219 24.7857 8.36104 25.2978 7.76225C25.7029 7.23875 26.024 6.8187 26.261 6.5021C27.9718 4.22798 28.7133 2.77468 28.4855 2.14222L28.3975 1.99458C28.2731 1.86794 28.1127 1.78263 27.9382 1.75024C27.6278 1.67237 27.3046 1.65966 26.9891 1.71293L22.7179 1.74228C22.6203 1.718 22.518 1.72077 22.4219 1.75028C22.2931 1.77963 22.2283 1.79465 22.2283 1.79465L22.1546 1.83218L22.0959 1.87655C22.0326 1.91832 21.9773 1.97092 21.9323 2.03193C21.8707 2.11075 21.821 2.19821 21.7849 2.29151C21.3414 3.4423 20.8108 4.55757 20.1976 5.62761C19.8315 6.24073 19.4954 6.77218 19.1891 7.22196C18.9596 7.57347 18.7019 7.90574 18.4185 8.21547C18.2431 8.399 18.0548 8.56977 17.855 8.72647C17.6862 8.85547 17.5583 8.90961 17.4694 8.89005C17.3804 8.86957 17.296 8.85005 17.2171 8.83044C17.0766 8.73992 16.9619 8.61481 16.8838 8.46711C16.791 8.28671 16.7332 8.09043 16.7131 7.88858C16.6838 7.65652 16.6663 7.45654 16.6606 7.28865C16.6563 7.12075 16.6588 6.88255 16.6686 6.57679C16.6784 6.27012 16.6838 6.06218 16.6838 5.95389C16.6838 5.57782 16.691 5.1699 16.7052 4.73014C16.7202 4.29014 16.7327 3.94176 16.7425 3.68499C16.7524 3.42821 16.7574 3.15627 16.7575 2.86917C16.7624 2.64314 16.7449 2.41718 16.7052 2.19462C16.6708 2.03121 16.6187 1.87207 16.5496 1.72005C16.4862 1.57381 16.3803 1.45001 16.2456 1.36469C16.0919 1.27202 15.9246 1.20422 15.7497 1.16381C15.0906 1.03198 14.4198 0.967342 13.7477 0.970875C12.5544 0.870727 11.3529 0.991583 10.2034 1.32738C9.99027 1.4401 9.7994 1.59066 9.64013 1.77169C9.46244 1.98942 9.43756 2.10818 9.5655 2.12796C10.0545 2.16207 10.509 2.39178 10.8266 2.7652L10.9153 2.94379C11.0132 3.1612 11.0828 3.39027 11.1225 3.6254C11.1956 3.9821 11.2401 4.34406 11.2556 4.70784C11.3058 5.3248 11.3058 5.94481 11.2556 6.56177C11.207 7.07525 11.1602 7.47543 11.1152 7.76232C11.0843 8.0036 11.0168 8.23879 10.9152 8.45984C10.863 8.5724 10.8033 8.68138 10.7367 8.78608C10.7174 8.81548 10.6923 8.84058 10.6629 8.85979C10.5351 8.90942 10.3992 8.93473 10.2621 8.9344C10.0773 8.91632 9.90195 8.84397 9.75817 8.72647C9.53133 8.56093 9.32491 8.36909 9.14323 8.15497C8.876 7.83664 8.63526 7.49699 8.42341 7.13941C8.15677 6.70465 7.88013 6.19064 7.59347 5.5974L7.35618 5.16741C7.20763 4.89099 7.005 4.48808 6.7483 3.95869C6.49144 3.42997 6.26424 2.91839 6.0667 2.42395C5.9995 2.23286 5.87502 2.06714 5.71021 1.94938L5.63649 1.90501C5.56303 1.85308 5.4833 1.81065 5.3992 1.77875C5.28941 1.73405 5.17494 1.70185 5.05795 1.68275L0.994947 1.7121C0.685151 1.67358 0.374538 1.77709 0.149777 1.99375L0.0901666 2.0827C0.055626 2.15679 0.0403703 2.23841 0.0458166 2.31998C0.0517307 2.45779 0.081857 2.59348 0.134817 2.72085C0.728377 4.11431 1.3735 5.45855 2.07019 6.75357C2.76703 8.04943 3.37226 9.09246 3.88589 9.88266C4.40049 10.6737 4.92449 11.4199 5.45789 12.1213C5.99207 12.8234 6.34545 13.2734 6.51805 13.4713C6.69142 13.6694 6.82745 13.8169 6.92597 13.9156L7.29657 14.2719C7.62268 14.5826 7.97242 14.8675 8.34263 15.1241C8.83459 15.4763 9.34418 15.8032 9.86941 16.1035C10.4837 16.447 11.1391 16.711 11.82 16.8891C12.5236 17.0877 13.2548 17.1702 13.9849 17.1334H15.6903C15.9836 17.1264 16.2637 17.0101 16.4759 16.8074L16.5346 16.7337C16.5853 16.6482 16.6227 16.5556 16.6456 16.4589C16.6815 16.326 16.6992 16.1888 16.6979 16.0512C16.6847 15.6657 16.717 15.28 16.7939 14.9021C16.8429 14.635 16.9279 14.3758 17.0464 14.1315C17.1309 13.971 17.2384 13.8237 17.3654 13.6943C17.4397 13.6118 17.5245 13.5395 17.6177 13.4793C17.656 13.4592 17.6955 13.4416 17.736 13.4267C18.0362 13.3626 18.3487 13.4485 18.5739 13.6569C18.9105 13.9045 19.2145 14.1935 19.4787 14.5171C19.7604 14.8584 20.0987 15.2414 20.4936 15.6662C20.8072 16.0163 21.1549 16.3343 21.5315 16.6154L21.8284 16.7931C22.0719 16.9316 22.3308 17.0411 22.5998 17.1193C22.8655 17.2148 23.1513 17.2405 23.4298 17.1939L27.2263 17.1343C27.529 17.1507 27.8307 17.0867 28.1006 16.9487C28.2723 16.8662 28.4051 16.7203 28.4712 16.5417C28.5113 16.3761 28.514 16.2036 28.4792 16.0369C28.4585 15.9026 28.4237 15.7709 28.3752 15.644L28.3752 15.6438Z" fill="white"/>
</svg>
