<?xml version="1.0" encoding="utf-8"?><svg viewBox="0 0 502.66 502.66" xmlns="http://www.w3.org/2000/svg" xmlns:xlink="http://www.w3.org/1999/xlink"><style>:root>svg{display:none}:root>svg:target{display:block}</style><svg viewBox="0 0 43 32" id="arrows" xmlns="http://www.w3.org/2000/svg"><path d="M41.456 11.882L23.433 29.904a2.805 2.805 0 01-3.955 0L1.456 11.882m30-10.646l-9.011 9.012a1.402 1.402 0 01-1.978 0l-9.011-9.012"/></svg><svg viewBox="0 0 46 69" id="door" xmlns="http://www.w3.org/2000/svg"><path d="M.462 61.764a1.764 1.764 0 001.756 1.758l9.786.017c.967 0 1.752-.784 1.755-1.752V6.677a1.76 1.76 0 00-1.755-1.755H2.218A1.76 1.76 0 00.462 6.677v55.087z"/><path fill-rule="evenodd" clip-rule="evenodd" d="M16.884.522a1.42 1.42 0 011.22-.295l25.631 4.631a2.185 2.185 0 011.727 2.068l-.029 54.699a2.185 2.185 0 01-1.728 2.065l-25.6 4.599a1.42 1.42 0 01-1.728-1.445V1.67c-.02-.44.169-.865.507-1.148zm23.628 60.495a2.185 2.185 0 001.728-2.066l.023-49.355a2.185 2.185 0 00-1.727-2.067L21.3 4.053a1.417 1.417 0 00-1.727 1.443v57.525a1.42 1.42 0 001.727 1.445l19.212-3.45z"/><path d="M24.73 34.257a1.829 1.829 0 11-1.767-2.299 2.086 2.086 0 011.767 2.3z"/></svg><svg viewBox="0 0 13 23" id="fb" xmlns="http://www.w3.org/2000/svg"><path d="M12.19 8.168H8.07v-2.01s-.23-1.913 1.108-1.913h2.711V.128H7.27S3.403.115 3.403 3.996c0 .834-.005 2.352-.01 4.172H.739v3.315h2.644c-.013 5.27-.032 11.145-.032 11.145h4.72V11.483h3.116l1.004-3.315z"/></svg><svg viewBox="0 0 502.664 502.664" id="icon" xmlns="http://www.w3.org/2000/svg"><path d="M153.821 358.226L0 274.337v-46.463l153.821-83.414v54.574L46.636 250.523l107.185 53.431v54.272zm26.273 29.358L282.103 115.08h32.227L212.084 387.584h-31.99zm168.749-29.358v-54.272l107.164-52.999-107.164-52.59v-53.927l153.821 83.522v46.183l-153.821 84.083z"/></svg><svg viewBox="0 0 24 23" id="inst" xmlns="http://www.w3.org/2000/svg"><path fill-rule="evenodd" clip-rule="evenodd" d="M3.85.379h16.725a2.82 2.82 0 012.887 2.888V19.99a2.82 2.82 0 01-2.887 2.888H3.85A2.82 2.82 0 01.962 19.99V3.267A2.82 2.82 0 013.85.379zm13.503 2.5a1.016 1.016 0 00-1.013 1.013v2.425a1.016 1.016 0 001.013 1.013h2.544a1.016 1.016 0 001.012-1.013V3.892a1.016 1.016 0 00-1.012-1.013h-2.544zm3.567 7.015h-1.981a6.58 6.58 0 01.289 1.93 6.997 6.997 0 01-13.988 0c0-.654.097-1.304.289-1.93H3.463v9.505a.897.897 0 00.895.895h15.667a.897.897 0 00.895-.895V9.894zm-8.686-2.693a4.381 4.381 0 104.519 4.38 4.451 4.451 0 00-4.52-4.38z"/></svg><svg viewBox="0 0 200 55" id="logotype" xmlns="http://www.w3.org/2000/svg"><path d="M106.15 9.306L94.95.246 72.774 18.104 61.081 8.688l-11.199 9.02 22.87 18.417.022-.017.021.017L106.15 9.306z"/><path d="M72.774 54.585L49.882 36.109V17.707l22.892 18.401v18.477zM106.15 27.781L72.774 54.585V36.11L106.15 9.306v18.475zM0 18.373h10.54v2.896H3.252v4.106h6.766v2.896H3.252v6.719H0V18.373zm13.531 13.721h4.202V21.269H13.53v-2.896h11.68v2.896h-4.226v10.825h4.226v2.896H13.53v-2.896zm18.778-5.627l-4.7-8.094h3.798l2.42 4.51.547 1.21.522-1.21 2.47-4.51h3.679l-4.772 8.118 4.914 8.499H37.39l-2.54-4.748-.641-1.282-.617 1.282-2.659 4.748h-3.68l5.057-8.523z"/><path fill-rule="evenodd" clip-rule="evenodd" d="M116.475 18.242a22.6 22.6 0 00-2.196.296V34.99h3.252v-5.721c.13.022.261.038.392.047a12.68 12.68 0 001.104.048h.38a8.858 8.858 0 002.385-.32 5.888 5.888 0 002.054-1.021 5.167 5.167 0 001.448-1.78 5.705 5.705 0 00.546-2.6 5.545 5.545 0 00-.629-2.813 4.69 4.69 0 00-1.626-1.686 6.19 6.19 0 00-2.244-.807c-.82-.134-1.649-.2-2.48-.202-.792 0-1.587.036-2.386.107zm1.745 2.73c.284-.024.585-.036.902-.036.406 0 .812.04 1.21.119.377.072.736.217 1.057.427.311.21.568.49.748.82.203.4.301.845.284 1.293a3.24 3.24 0 01-.296 1.496 2.284 2.284 0 01-.796.89 3.13 3.13 0 01-1.127.44 6.94 6.94 0 01-1.27.118h-.297a7.272 7.272 0 01-.819-.048 2.492 2.492 0 01-.285-.047v-5.39c.174-.03.404-.058.689-.082z"/><path d="M128.451 18.373h10.896v2.896h-7.644v3.869h7.051v2.896h-7.051v4.06h7.763v2.896h-11.015V18.373zm23.098 7.762l.119-2.588h-.143l-2.659 4.345h-.569l-2.778-4.345h-.119l.143 2.327v9.116h-3.086V18.373h3.3l2.848 4.605h.095l2.825-4.605h3.276V34.99h-3.252v-8.855z"/><path fill-rule="evenodd" clip-rule="evenodd" d="M157.697 23.05a15.899 15.899 0 00-.38 3.631 17.036 17.036 0 00.333 3.49 7.84 7.84 0 001.08 2.73 5.261 5.261 0 001.946 1.78 6.097 6.097 0 002.909.641 5.31 5.31 0 004.712-2.29 11.201 11.201 0 001.555-6.351 16.495 16.495 0 00-.345-3.49 8.032 8.032 0 00-1.092-2.73 5.282 5.282 0 00-1.934-1.78 6.806 6.806 0 00-5.662-.047 5.315 5.315 0 00-1.959 1.697 7.702 7.702 0 00-1.163 2.718zm3.145 5.886a22.348 22.348 0 01-.106-2.255 11.908 11.908 0 01.593-4.296 2.225 2.225 0 012.256-1.449 2.336 2.336 0 011.519.463c.395.33.694.761.866 1.246a6.65 6.65 0 01.38 1.828c.056.697.083 1.433.083 2.208.007.852-.037 1.705-.13 2.552a6.012 6.012 0 01-.463 1.792 2.41 2.41 0 01-.879 1.057 2.537 2.537 0 01-1.376.344 2.288 2.288 0 01-1.484-.45 2.842 2.842 0 01-.855-1.224 7.112 7.112 0 01-.404-1.816z"/><path d="M181.223 28.034h-5.366v6.956h-3.252V18.373h3.252v6.765h5.366v-6.765h3.252V34.99h-3.252v-6.956zm7.952 4.344h2.706V20.984h-2.279v2.872h-2.611v-5.483H200v5.483h-2.611v-2.872h-2.255v11.394h2.682v2.612h-8.641v-2.612z"/><defs><linearGradient id="fa" x1="49.859" y1=".082" x2="49.774" y2="36.089" gradientUnits="userSpaceOnUse"><stop stop-color="#E07053"/><stop offset="1" stop-color="#FF8363"/></linearGradient><linearGradient id="fb" x1="38.041" y1="45.209" x2="79.36" y2="69.805" gradientUnits="userSpaceOnUse"><stop stop-color="#FF6640"/><stop offset="1" stop-color="#D94B27"/></linearGradient><linearGradient id="fc" x1="79.285" y1="-11.955" x2="28.364" y2="31.738" gradientUnits="userSpaceOnUse"><stop stop-color="#EB4015"/><stop offset="1" stop-color="#D94B27"/></linearGradient></defs></svg><svg viewBox="0 0 32 22" id="mail" xmlns="http://www.w3.org/2000/svg"><path fill-rule="evenodd" clip-rule="evenodd" d="M31.234 3.555a2.471 2.471 0 00-.657-1.662.09.09 0 01-.016-.028c-.007-.007-.017-.01-.025-.018a2.512 2.512 0 00-1.823-.783H3.755c-.69 0-1.35.283-1.827.783-.007.008-.017.01-.022.02a.088.088 0 00-.015.028 2.453 2.453 0 00-.657 1.66v14.683c.001.632.247 1.239.685 1.695a.16.16 0 00.02.03c.002.003.008.003.01.007a2.52 2.52 0 001.805.76h24.959a2.52 2.52 0 001.806-.762l.01-.005c.007-.008.01-.02.02-.028a2.468 2.468 0 00.685-1.697V3.555zm-9.82 6.567l8.645-7.168c.087.188.133.393.134.601v14.683c0 .189-.038.375-.109.55l-8.67-8.666zm7.299-8.03c.21 0 .417.045.609.132l-13.09 10.85L3.146 2.225c.191-.087.399-.131.609-.132h24.958zM2.383 18.788a1.439 1.439 0 01-.111-.55V3.555c0-.208.047-.413.136-.601l8.647 7.168-8.672 8.666zm1.372.914a1.502 1.502 0 01-.665-.161l8.763-8.757 4.046 3.354a.52.52 0 00.667 0l4.05-3.354 8.76 8.757a1.5 1.5 0 01-.663.161H3.755z"/><path d="M31.234 3.555h.35v-.002l-.35.002zm-.657-1.662l-.27.222.006.008.007.007.257-.237zm-.016-.028l.332-.114-.027-.076-.057-.058-.248.248zm-.025-.018l-.254.241.007.007.247-.248zm-1.823-.783v.35-.35zm-24.958 0v-.35.35zm-1.827.783l.249.247.005-.005-.254-.242zm-.022.02l.274.218.02-.025.015-.028-.31-.165zm-.015.028l.256.239.053-.057.024-.074-.333-.108zm-.657 1.66l-.35-.002v.002h.35zm0 14.683h-.35.35zm.685 1.695l.312-.16-.024-.046-.036-.037-.252.243zm.02.03l-.27.224.012.013.012.012.246-.249zm.01.007l-.322.138.025.06.046.047.25-.245zm1.805.76v-.35.35zm24.959 0v.35-.35zm1.806-.762l-.156-.313-.054.026-.041.043.25.244zm.01-.005l.156.313.059-.029.044-.048-.259-.236zm.02-.028l.21.28.023-.017.02-.02-.253-.243zm.685-1.697l.35.001v-.001h-.35zm-9.82-8.116l-.224-.27-.296.246.272.272.247-.248zm8.645-7.168l.318-.147-.19-.413-.351.29.223.27zm.134.601h.35v-.002l-.35.002zm0 14.683l.35.001v-.001h-.35zm-.109.55l-.247.248.373.372.199-.488-.325-.132zM28.713 2.092v-.35.35zm.609.132l.223.269.432-.358-.511-.23-.144.319zm-13.09 10.85l-.223.27.223.185.224-.185-.224-.27zM3.146 2.225l-.144-.32-.511.231.432.358.223-.27zm.609-.132v-.35.35zM2.383 18.788l-.323.135.201.482.37-.37-.248-.247zm-.111-.55h-.35.35zm0-14.683l-.35-.002v.002h.35zm.136-.601l.224-.27-.348-.288-.192.408.316.15zm8.647 7.168l.247.248.272-.272-.296-.245-.223.27zm-7.3 9.58l-.004.35h.004v-.35zm-.665-.161l-.247-.248-.342.342.432.218.157-.312zm8.763-8.757l.223-.27-.245-.203-.226.225.248.248zm4.046 3.354l.225-.268-.001-.001-.224.27zm.667 0l-.223-.27-.001.002.224.268zm4.05-3.354l.247-.248-.226-.225-.245.203.223.27zm8.76 8.757l.159.312.431-.218-.342-.342-.247.248zm-.663.161v.35h.003l-.003-.35zm2.871-16.15a2.822 2.822 0 00-.75-1.897l-.514.475c.36.389.56.898.564 1.427l.7-.004zm-.737-1.882a.26.26 0 01.046.081l-.663.227a.44.44 0 00.077.137l.54-.445zm-.038-.053a.385.385 0 00-.08-.061l-.008-.005.003.002a.294.294 0 01.06.047l-.495.495a.394.394 0 00.087.066l-.012-.008a.313.313 0 01-.05-.04l.495-.496zm-.019-.01a2.862 2.862 0 00-2.077-.893v.7c.593 0 1.16.244 1.57.674l.507-.482zM28.713.713H3.755v.7h24.958v-.7zm-24.959 0c-.786 0-1.537.323-2.079.892l.507.483c.41-.43.978-.675 1.573-.675v-.7zM1.68 1.6a.304.304 0 01.039-.032l.004-.003-.002.001a.408.408 0 00-.124.137l.618.329c-.037.069-.088.104-.098.111l-.002.001a.478.478 0 00.062-.05L1.68 1.6zm-.048.05a.439.439 0 00-.074.137l.666.216a.261.261 0 01-.044.082l-.548-.435zm.003.007a2.803 2.803 0 00-.751 1.896l.7.004a2.103 2.103 0 01.563-1.423l-.512-.477zM.884 3.555v14.683h.7V3.555h-.7zm0 14.684c.002.722.282 1.415.782 1.936l.505-.485a2.104 2.104 0 01-.587-1.453l-.7.002zm.723 1.852a.516.516 0 00.062.096l.54-.448.022.035-.624.317zm.086.121a.361.361 0 00.104.072l.004.001a.332.332 0 01-.081-.051.343.343 0 01-.093-.126l.643-.275a.356.356 0 00-.175-.183l-.008-.004h-.003v-.001l.01.005a.32.32 0 01.09.064l-.49.498zm.005.003a2.87 2.87 0 002.057.866v-.7a2.17 2.17 0 01-1.556-.655l-.501.489zm2.056.866h24.959v-.7H3.754v.7zm24.959 0a2.87 2.87 0 002.056-.869l-.501-.488a2.17 2.17 0 01-1.555.657v.7zm1.962-.8l.01-.005-.312-.626-.01.005.312.626zm.113-.082a.375.375 0 00.047-.064c.003-.006.006-.012.008-.013v-.001a.316.316 0 01-.083.094l-.422-.56c-.065.05-.097.108-.105.122l-.003.005v.002l.003-.006a.314.314 0 01.038-.05l.517.471zm.014-.022c.5-.522.78-1.215.782-1.938l-.7-.002a2.117 2.117 0 01-.588 1.456l.506.484zm.782-1.94V3.556h-.7v14.683h.7zm-9.947-7.845l8.645-7.169-.446-.539-8.646 7.169.447.539zM29.74 3.1c.067.144.101.3.102.457l.7-.004a1.803 1.803 0 00-.166-.746l-.636.293zm.102.455v14.683h.7V3.555h-.7zm0 14.682c0 .144-.029.286-.083.42l.649.263c.088-.216.133-.447.134-.68l-.7-.003zm.489.304L21.66 9.875l-.495.495 8.671 8.666.495-.495zm-1.62-16.099c.161 0 .32.035.466.1l.288-.638a1.84 1.84 0 00-.753-.162v.7zm.387-.488l-13.09 10.851.447.54 13.09-10.852-.447-.539zM16.456 12.805L3.369 1.955l-.446.538 13.086 10.851.447-.539zM3.29 2.543c.146-.066.305-.1.465-.1v-.7c-.26 0-.516.055-.753.162l.288.638zm.465-.1h24.958v-.7H3.755v.7zm-1.049 16.21a1.09 1.09 0 01-.084-.416l-.7.002c0 .235.048.467.138.684l.646-.27zm-.084-.415V3.555h-.7v14.683h.7zm0-14.681c0-.157.036-.312.103-.454l-.633-.299c-.11.235-.169.49-.17.75l.7.003zm-.437-.334l8.646 7.169.447-.54-8.646-7.168-.447.54zm8.622 6.652L2.136 18.54l.494.495 8.672-8.666-.495-.495zm-7.05 9.477a1.15 1.15 0 01-.509-.124l-.315.625c.254.129.534.197.818.2l.007-.7zm-.42.436l8.763-8.757-.495-.495-8.762 8.757.495.495zm8.293-8.735l4.046 3.355.447-.54-4.047-3.354-.447.539zm4.045 3.354a.87.87 0 001.115 0l-.448-.537a.17.17 0 01-.218 0l-.449.537zm1.114 0l4.05-3.354-.447-.539-4.05 3.355.447.539zm3.579-3.376l8.762 8.757.494-.495-8.761-8.757-.495.495zm8.85 8.197a1.15 1.15 0 01-.508.124l.006.7a1.85 1.85 0 00.819-.199l-.316-.625zm-.505.124H3.755v.7h24.958v-.7z"/></svg><svg viewBox="0 0 214 148" id="ok" xmlns="http://www.w3.org/2000/svg"><path d="M10 71.932L76.044 138 204 10"/></svg><svg viewBox="0 0 25 26" id="phone" xmlns="http://www.w3.org/2000/svg"><path fill-rule="evenodd" clip-rule="evenodd" d="M24.743 13.341C24.735 6.478 19.173.916 12.311.909a.671.671 0 000 1.342c6.122.007 11.084 4.968 11.09 11.09a.671.671 0 001.342 0zm-6.239 11.545a11.071 11.071 0 01-3.318-.58 21.218 21.218 0 01-8.37-5.45C2.603 14.642.787 11.397.744 8.006a.67.67 0 01.663-.679h.008c.368 0 .666.296.671.663.038 3.008 1.737 5.974 5.68 9.917 6.043 6.043 10.826 5.65 11.078 5.624a5.056 5.056 0 001.234-.311 4.831 4.831 0 001.203-.681.708.708 0 01.1-.065l.823-.806c.43-.412.448-1.092.042-1.526l-3.365-3.366a1.083 1.083 0 00-1.526.047l-1.696 1.696a.671.671 0 01-.798.113l-.339-.189a16.553 16.553 0 01-7.29-7.29l-.033-.06c-.05-.092-.1-.18-.148-.265a.67.67 0 01.108-.808l1.697-1.696c.433-.41.453-1.092.045-1.526L5.535 3.43a1.008 1.008 0 00-.74-.292 1.137 1.137 0 00-.78.332l-.893.949a4.685 4.685 0 00-.445.698.671.671 0 11-1.19-.62 6.01 6.01 0 01.636-.975l.923-.98.014-.014a2.472 2.472 0 011.709-.731 2.335 2.335 0 011.714.684L9.85 5.85c.93.958.91 2.49-.045 3.423l-1.34 1.339a15.134 15.134 0 006.603 6.6l1.338-1.337a2.426 2.426 0 013.422-.048l3.367 3.367c.93.96.91 2.49-.044 3.425l-.005.005-.961.941a.67.67 0 01-.233.15 6.362 6.362 0 01-2.954 1.15h-.01c-.16.016-.321.023-.483.022zM12.827 5.273a7.56 7.56 0 017.552 7.552.67.67 0 11-1.342 0 6.218 6.218 0 00-6.21-6.21.671.671 0 010-1.342z"/><path d="M12.311.909v-.25.25zM24.743 13.34h.25-.25zM11.73 1.244l-.217-.125.217.125zm0 .671l-.217.125.217-.125zm.581.336V2v.25zm11.09 11.09h.25-.25zm1.007.581l-.125-.216.125.216zm-9.222 10.384l-.083.236h.003l.08-.236zm3.318.58l-.005.25h.004l.001-.25zm-11.687-6.03l.181-.172-.005-.005-.176.177zM.743 8.006l.25-.003-.25.003zm.19-.476l-.178-.175.179.175zm.473-.203v-.25h-.003l.003.25zm.008 0v-.25.25zm.671.663l.25-.003-.25.003zm5.68 9.917l.177-.177-.176.177zm11.078 5.624l.025.249.005-.001-.03-.248zm1.234-.311l-.091-.233.09.233zm1.203-.681l.153.197-.153-.198zm.1-.065l.118.22.031-.017.026-.025-.175-.178zm.823-.806l-.173-.181-.002.002.175.179zm.042-1.526l.183-.171-.006-.006-.177.177zm-3.365-3.366l.177-.177-.007-.006-.17.183zm-1.526.047l.177.177.005-.005-.182-.172zm-1.696 1.696l.177.176-.177-.176zm-.798.113l-.12.219.12-.22zm-.339-.189l.123-.218-.01-.005-.113.223zm-7.29-7.29l.224-.113-.005-.008-.218.121zm-.033-.06l-.22.12h.001l.219-.12zm-.148-.265l.217-.124-.217.124zm.108-.808l.177.177-.177-.177zm1.697-1.696l-.172-.182-.005.005.177.177zM8.9 6.798l.183-.172-.006-.005-.177.177zM5.535 3.43l.177-.177H5.71l-.176.177zm-.74-.292l.005.25h.002l-.008-.25zm-.78.332l-.176-.177-.005.006.182.171zm-.893.949l-.182-.172-.008.01-.008.01.198.152zm-.445.698l.222.115-.222-.115zm-.905.285l.116-.222-.116.222zm-.285-.906l.222.116-.222-.116zm.597-.928l-.197-.154.197.154zm.04-.046L1.94 3.35v.002l.182.17zm.922-.98l-.18-.174-.002.003.182.171zm.014-.014l-.178-.176-.001.001.179.175zm1.709-.731l.005.25h.002l-.007-.25zm1.714.684l-.177.177.177-.177zM9.85 5.85l.18-.174-.003-.003-.177.177zm-.045 3.423l-.175-.179-.002.002.177.177zm-1.34 1.339l-.176-.177-.129.129.083.161.223-.113zm6.603 6.6l-.113.223.162.082.128-.128-.177-.177zm1.338-1.337l.177.176.002-.002-.179-.174zm3.422-.048l.177-.177-.003-.002-.174.18zm3.367 3.367l.18-.174-.003-.002-.176.176zm-.044 3.425l-.175-.179-.002.002.177.177zm-.005.005l.175.179.002-.002-.177-.177zm-.961.941l-.175-.178.175.178zm-.233.15l-.088-.235-.032.012-.027.02.147.202zm-1.387.756l-.09-.233h-.001l.09.233zm-1.567.394l.028.248h.001l-.03-.248zm-.01 0l.025.25h.004l-.028-.25zm1.392-12.039h-.25v.001h.25zm-7.552-7.552v-.25.25zm7.218 8.135l-.126-.216.126.216zm-.673 0l.125-.216-.125.216zm-.335-.583l.25.001h-.25zm-6.21-6.21v-.25.25zm-.516-5.456c6.725.007 12.175 5.457 12.182 12.182h.5C24.985 6.34 19.313.667 12.311.659v.5zm-.365.21a.421.421 0 01.365-.21v-.5a.921.921 0 00-.798.46l.433.25zm0 .421a.42.42 0 010-.42l-.433-.25a.921.921 0 000 .92l.433-.25zm.365.21c-.15 0-.29-.08-.365-.21l-.433.25c.165.285.469.46.798.46V2zm11.34 11.341c-.006-6.26-5.08-11.333-11.34-11.34v.5c5.984.007 10.834 4.856 10.84 10.84h.5zm.211.365a.42.42 0 01-.21-.365h-.5a.92.92 0 00.46.798l.25-.433zm.42 0a.42.42 0 01-.42 0l-.25.433a.921.921 0 00.921 0l-.25-.433zm.211-.365c0 .15-.08.29-.21.365l.25.433a.921.921 0 00.46-.798h-.5zm-9.387 11.202c1.094.37 2.239.57 3.393.593l.01-.5a10.817 10.817 0 01-3.243-.567l-.16.474zm-8.471-5.515a21.468 21.468 0 008.468 5.514l.166-.472A20.967 20.967 0 017 18.684l-.364.344zM.493 8.01c.044 3.49 1.919 6.794 6.147 11.023l.353-.354c-4.2-4.2-5.958-7.385-6-10.676l-.5.007zm.262-.655a.92.92 0 00-.262.655l.5-.007a.421.421 0 01.12-.299l-.358-.349zm.648-.278a.92.92 0 00-.648.278l.358.35a.421.421 0 01.296-.128l-.006-.5zm.011 0h-.008v.5h.008v-.5zm.921.91a.921.921 0 00-.92-.91v.5c.23 0 .417.186.42.416l.5-.007zm5.607 9.743c-3.932-3.932-5.57-6.838-5.607-9.744l-.5.007c.04 3.11 1.8 6.137 5.754 10.091l.353-.354zm10.875 5.552c-.186.02-4.892.432-10.875-5.552l-.353.354c6.1 6.101 10.961 5.728 11.28 5.695l-.052-.497zm1.168-.295c-.376.148-.77.247-1.172.296l.06.496a5.258 5.258 0 001.295-.326l-.183-.466zm1.142-.646a4.579 4.579 0 01-1.141.646l.181.466a5.06 5.06 0 001.266-.717l-.306-.395zm.134-.088a.944.944 0 00-.134.088l.307.395a.446.446 0 01.064-.042l-.237-.44zm.767-.764l-.823.806.35.357.823-.806-.35-.357zm.035-1.177a.835.835 0 01-.033 1.175l.346.361a1.335 1.335 0 00.052-1.877l-.366.341zm-3.36-3.359l3.365 3.365.354-.353-3.365-3.366-.354.354zm-1.167.042a.833.833 0 011.173-.036l.341-.366a1.333 1.333 0 00-1.877.058l.363.344zm-1.7 1.7L17.53 17l-.353-.354-1.696 1.696.353.353zm-1.096.156a.921.921 0 001.095-.156l-.353-.353a.421.421 0 01-.501.07l-.241.439zm-.342-.19l.342.19.24-.438-.336-.188-.246.436zm-7.39-7.395a16.803 16.803 0 007.4 7.4l.226-.446a16.302 16.302 0 01-7.18-7.18l-.446.226zm-.029-.052l.034.061.437-.243-.034-.061-.437.243zm-.147-.262c.048.083.096.17.147.261l.437-.242-.15-.267-.434.248zm.15-1.109a.92.92 0 00-.15 1.109l.435-.248a.42.42 0 01.068-.507l-.354-.354zm1.696-1.696L6.981 9.843l.354.354L9.032 8.5l-.354-.354zm.04-1.179a.833.833 0 01-.035 1.174l.344.363a1.333 1.333 0 00.056-1.878l-.365.341zm-3.36-3.36l3.366 3.366.353-.353-3.365-3.367-.354.354zm-.556-.219a.758.758 0 01.557.22l.352-.356a1.258 1.258 0 00-.924-.364l.015.5zm-.61.259a.887.887 0 01.608-.259l-.011-.5a1.387 1.387 0 00-.95.405l.353.354zm-.888.943l.894-.949-.364-.342-.894.948.364.343zm-.405.642c.12-.232.262-.453.421-.66l-.396-.306a5 5 0 00-.469.735l.444.23zm-1.243.391a.921.921 0 001.243-.39l-.444-.232a.421.421 0 01-.567.179l-.232.443zm-.39-1.242a.921.921 0 00.39 1.242l.232-.443a.421.421 0 01-.18-.568l-.443-.231zm.62-.967a6.26 6.26 0 00-.62.967l.443.23a5.76 5.76 0 01.572-.89l-.394-.307zm.054-.062a.962.962 0 00-.053.062l.394.308a.472.472 0 01.025-.03l-.366-.34zm.924-.981l-.923.98.364.342.923-.98-.364-.342zm.017-.018l-.014.015.358.349.014-.015-.358-.349zm1.883-.806a2.722 2.722 0 00-1.882.805l.355.352c.408-.41.959-.646 1.537-.657l-.01-.5zm1.896.758a2.585 2.585 0 00-1.898-.758l.014.5a2.085 2.085 0 011.53.61l.354-.352zm3.366 3.366L6.66 2.305l-.354.354 3.366 3.367.354-.354zm-.048 3.779a2.675 2.675 0 00.05-3.776l-.358.348c.834.86.816 2.233-.041 3.07l.35.358zm-1.336 1.336L9.98 9.45l-.354-.354-1.339 1.339.354.354zm6.539 6.201a14.884 14.884 0 01-6.494-6.49l-.445.226a15.384 15.384 0 006.712 6.71l.227-.446zm1.048-1.291l-1.338 1.337.353.354 1.338-1.338-.354-.353zm3.772-.05a2.676 2.676 0 00-3.774.052l.357.35a2.176 2.176 0 013.07-.043l.347-.36zm3.37 3.37l-3.367-3.368-.353.354 3.367 3.367.353-.353zm-.046 3.78a2.68 2.68 0 00.05-3.777l-.36.347a2.18 2.18 0 01-.04 3.072l.35.357zm-.003.003l.005-.006-.354-.353-.005.005.354.354zm-.963.943l.96-.941-.35-.357-.96.94.35.358zm-.32.204a.918.918 0 00.32-.204l-.35-.357a.42.42 0 01-.146.093l.176.468zm-1.385.756c.513-.2.999-.464 1.444-.788l-.294-.404c-.41.298-.858.542-1.33.726l.18.466zm-1.628.409a6.609 6.609 0 001.629-.41l-.182-.465c-.484.19-.99.317-1.506.378l.06.497zm-.01.001h.009l-.056-.498-.009.001.056.497zm-.513.023c.17.001.34-.006.509-.023l-.048-.497a4.553 4.553 0 01-.458.02l-.003.5zm2.126-12.311a7.81 7.81 0 00-7.802-7.802v.5a7.31 7.31 0 017.302 7.302h.5zm-.459.8a.92.92 0 00.46-.8l-.5.001c0 .15-.08.29-.21.366l.25.433zm-.923 0a.921.921 0 00.923 0l-.25-.433a.42.42 0 01-.423 0l-.25.433zm-.46-.8a.92.92 0 00.46.8l.25-.433a.42.42 0 01-.21-.366l-.5-.002zm-5.96-5.96a5.968 5.968 0 015.96 5.96h.5a6.468 6.468 0 00-6.46-6.46v.5zm-.921-.921c0 .509.412.92.92.92v-.5a.421.421 0 01-.42-.42h-.5zm.92-.921a.921.921 0 00-.92.92h.5a.42.42 0 01.42-.42v-.5z"/></svg><svg viewBox="0 0 254 254" id="videoplay" xmlns="http://www.w3.org/2000/svg"><circle cx="127" cy="127" r="125"/><path clip-rule="evenodd" d="M88.063 66.663l109.375 63.147-109.375 63.148V66.663z"/><defs><linearGradient id="ja" x1="0" y1="254" x2="254" y2="254" gradientUnits="userSpaceOnUse"><stop stop-color="#FA9685"/><stop offset="1" stop-color="#F9572E"/></linearGradient><linearGradient id="jb" x1="86.063" y1="-18610.4" x2="199.438" y2="-18610.4" gradientUnits="userSpaceOnUse"><stop stop-color="#FA9685"/><stop offset="1" stop-color="#F9572E"/></linearGradient></defs></svg><svg viewBox="0 0 29 18" id="vk" xmlns="http://www.w3.org/2000/svg"><path d="M28.375 15.644a1.968 1.968 0 00-.096-.186 14.776 14.776 0 00-2.833-3.276l-.029-.03-.015-.015-.015-.015h-.015c-.632-.603-1.033-1.008-1.201-1.216a1.142 1.142 0 01-.208-1.201 11.18 11.18 0 011.335-1.943c.405-.523.726-.943.963-1.26 1.71-2.274 2.452-3.727 2.224-4.36l-.087-.147a.865.865 0 00-.46-.245 2.316 2.316 0 00-.949-.037l-4.271.03a.553.553 0 00-.296.007l-.194.045-.073.037-.06.045a.644.644 0 00-.163.155 1.018 1.018 0 00-.147.26 24.244 24.244 0 01-1.587 3.336 32.115 32.115 0 01-1.009 1.594 7.74 7.74 0 01-.77.993 5.325 5.325 0 01-.564.511c-.169.13-.297.184-.386.164a15.17 15.17 0 01-.252-.06.973.973 0 01-.333-.363 1.614 1.614 0 01-.17-.578 6.705 6.705 0 01-.053-.6c-.005-.168-.002-.406.008-.712.01-.307.015-.515.015-.623 0-.376.007-.784.021-1.224l.038-1.045c.01-.257.014-.529.015-.816a3.42 3.42 0 00-.053-.674 2.283 2.283 0 00-.155-.475.795.795 0 00-.304-.355 1.703 1.703 0 00-.496-.201A9.941 9.941 0 0013.748.97a9.736 9.736 0 00-3.545.356 1.989 1.989 0 00-.563.445c-.178.217-.202.336-.075.356.49.034.944.264 1.262.637l.088.179c.098.217.168.446.208.681.073.357.117.72.133 1.083.05.617.05 1.237 0 1.854-.049.513-.096.913-.14 1.2a2.4 2.4 0 01-.2.698 2.813 2.813 0 01-.18.326.255.255 0 01-.073.074 1.1 1.1 0 01-.4.074.941.941 0 01-.505-.208 3.554 3.554 0 01-.615-.571 7.622 7.622 0 01-.72-1.016 17.722 17.722 0 01-.83-1.542l-.237-.43a36.356 36.356 0 01-.608-1.208 23.318 23.318 0 01-.681-1.535.985.985 0 00-.357-.475l-.074-.044a1.066 1.066 0 00-.237-.126 1.58 1.58 0 00-.341-.096l-4.063.03a1.03 1.03 0 00-.845.28l-.06.09a.485.485 0 00-.044.237c.006.138.036.273.089.4A49.219 49.219 0 002.07 6.755c.697 1.295 1.302 2.338 1.816 3.129a37.285 37.285 0 001.572 2.238 33.32 33.32 0 001.06 1.35c.173.198.31.346.408.445l.37.356c.327.31.676.595 1.047.852.492.352 1.001.68 1.526.98a8.3 8.3 0 001.951.785 6.723 6.723 0 002.165.244h1.705c.294-.007.574-.123.786-.326l.059-.073a.983.983 0 00.11-.275 1.48 1.48 0 00.053-.408 4.926 4.926 0 01.096-1.149 3.01 3.01 0 01.252-.77 1.86 1.86 0 01.32-.438c.074-.082.159-.155.252-.215a.99.99 0 01.118-.052c.3-.064.613.021.838.23.336.248.64.537.905.86.281.341.62.724 1.015 1.15.313.35.66.667 1.038.948l.296.178c.244.139.503.248.772.326.265.096.551.122.83.075l3.796-.06c.303.017.605-.047.875-.185a.734.734 0 00.37-.407c.04-.166.043-.338.008-.505a1.92 1.92 0 00-.104-.393z"/></svg></svg>