<svg width="24" height="23" viewBox="0 0 24 23" fill="none" xmlns="http://www.w3.org/2000/svg">
<path fill-rule="evenodd" clip-rule="evenodd" d="M3.85026 0.379031H20.5747C21.3462 0.360016 22.0918 0.658154 22.6376 1.2039C23.1833 1.74964 23.4815 2.49526 23.4625 3.26682V19.9912C23.4815 20.7628 23.1833 21.5084 22.6376 22.0542C22.0919 22.5999 21.3462 22.898 20.5747 22.879H3.85026C3.07869 22.898 2.33308 22.5999 1.78733 22.0542C1.24159 21.5084 0.943454 20.7628 0.962466 19.9912V3.26682C0.943454 2.49526 1.24159 1.74964 1.78733 1.2039C2.33308 0.658158 3.07869 0.360019 3.85026 0.379031ZM17.353 2.87871C16.7942 2.88024 16.3416 3.33288 16.34 3.89171V6.31688C16.3415 6.87573 16.7942 7.32839 17.353 7.32993H19.8966C20.4551 7.32791 20.9071 6.87535 20.9085 6.31688V3.89171C20.9071 3.33326 20.4551 2.88072 19.8966 2.87871H17.353ZM20.9198 9.89404H18.939C19.1306 10.5195 19.2279 11.1701 19.2278 11.8242C19.1088 15.6012 16.0126 18.6013 12.2338 18.6013C8.45506 18.6013 5.35888 15.6012 5.23989 11.8242C5.23977 11.1701 5.3371 10.5195 5.52867 9.89404H3.46332V19.3989C3.46454 19.8925 3.86436 20.2924 4.35796 20.2936H20.0254C20.5189 20.2923 20.9187 19.8925 20.9198 19.3989L20.9198 9.89404ZM12.2338 7.20144C9.83326 7.27703 7.94104 9.27122 7.99144 11.6724C8.04184 14.0737 10.0161 15.9867 12.4177 15.9615C14.8193 15.9363 16.753 13.9823 16.753 11.5805C16.7135 9.12366 14.6907 7.16351 12.2338 7.20144Z" fill="white"/>
</svg>
