<svg width="200" height="55" viewBox="0 0 200 55" fill="none" xmlns="http://www.w3.org/2000/svg">
<path d="M106.15 9.30609L94.95 0.246094L72.774 18.1041L61.081 8.68809L49.882 17.7071L72.752 36.1251L72.774 36.1081L72.795 36.1251L106.15 9.30609Z" fill="url(#paint0_linear_1_15)"/>
<path d="M72.774 54.585L49.882 36.109V17.707L72.774 36.108V54.585Z" fill="url(#paint1_linear_1_15)"/>
<path d="M106.15 27.7812L72.774 54.5852V36.1092L106.15 9.30615V27.7812Z" fill="url(#paint2_linear_1_15)"/>
<path d="M0.00012207 18.3726H10.5404V21.2686H3.25249V25.3754H10.0181V28.2714H3.25249V34.9897H0.00012207V18.3726Z" fill="#231F20"/>
<path d="M13.5312 32.0937H17.7329V21.2686H13.5312V18.3726H25.211V21.2686H20.9854V32.0937H25.211V34.9897H13.5312V32.0937Z" fill="#231F20"/>
<path d="M32.3087 26.4674L27.6086 18.3726H31.4067L33.8279 22.8826L34.374 24.0937L34.8963 22.8826L37.3652 18.3726H41.0446L36.2732 26.4913L41.1872 34.9898H37.3888L34.8489 30.242L34.2079 28.96L33.5908 30.242L30.9322 34.9898H27.2524L32.3087 26.4674Z" fill="#231F20"/>
<path fill-rule="evenodd" clip-rule="evenodd" d="M116.475 18.242C115.676 18.3134 114.944 18.4122 114.279 18.5385V34.9899H117.531V29.2688C117.661 29.2912 117.792 29.307 117.923 29.3162C118.105 29.3322 118.291 29.3442 118.481 29.3517C118.671 29.3599 118.853 29.364 119.027 29.364H119.407C120.213 29.3661 121.015 29.2582 121.792 29.0433C122.537 28.841 123.235 28.4941 123.846 28.0226C124.456 27.5451 124.951 26.9366 125.294 26.2421C125.678 25.4307 125.865 24.5401 125.84 23.6428C125.882 22.6661 125.665 21.6957 125.211 20.8297C124.82 20.1393 124.261 19.5593 123.585 19.144C122.896 18.732 122.134 18.4578 121.341 18.3369C120.521 18.2035 119.692 18.1361 118.861 18.1353C118.069 18.1351 117.274 18.1707 116.475 18.242ZM118.22 20.9719C118.504 20.948 118.805 20.9361 119.122 20.9361C119.528 20.9358 119.934 20.9756 120.332 21.0548C120.709 21.1268 121.068 21.2721 121.389 21.4823C121.7 21.6912 121.957 21.9721 122.137 22.3014C122.34 22.7013 122.438 23.1466 122.421 23.5951C122.443 24.1101 122.341 24.6227 122.125 25.0907C121.943 25.4526 121.669 25.7598 121.329 25.9811C120.986 26.1992 120.603 26.3483 120.202 26.4202C119.783 26.4993 119.358 26.5389 118.932 26.5386H118.635C118.5 26.5386 118.362 26.5351 118.22 26.527C118.077 26.519 117.943 26.5072 117.816 26.4915C117.72 26.4811 117.625 26.4651 117.531 26.4437V21.0548C117.705 21.0231 117.935 20.9955 118.22 20.9719Z" fill="#231F20"/>
<path d="M128.451 18.3726H139.347V21.2686H131.703V25.1379H138.754V28.0339H131.703V32.0937H139.466V34.9897H128.451V18.3726Z" fill="#231F20"/>
<path d="M151.549 26.1352L151.668 23.5475H151.525L148.866 27.8918H148.297L145.519 23.5475H145.4L145.543 25.8738V34.9898H142.457V18.3726H145.757L148.605 22.9778H148.7L151.525 18.3726H154.801V34.9898H151.549L151.549 26.1352Z" fill="#231F20"/>
<path fill-rule="evenodd" clip-rule="evenodd" d="M157.697 23.0491C157.431 24.2412 157.304 25.4598 157.317 26.681C157.308 27.8526 157.419 29.022 157.65 30.1707C157.835 31.1406 158.201 32.0669 158.73 32.901C159.217 33.6501 159.887 34.2627 160.676 34.6811C161.578 35.132 162.577 35.3523 163.585 35.3221C165.449 35.4408 167.238 34.5708 168.297 33.0313C169.435 31.1163 169.977 28.9053 169.852 26.681C169.861 25.5089 169.746 24.3391 169.507 23.1914C169.314 22.222 168.944 21.2965 168.415 20.4614C167.931 19.7144 167.265 19.102 166.481 18.681C164.69 17.8436 162.623 17.8263 160.819 18.6335C160.036 19.0289 159.363 19.612 158.86 20.3308C158.301 21.1532 157.905 22.0763 157.697 23.0491ZM160.842 28.9364C160.769 28.1869 160.733 27.4342 160.736 26.681C160.669 25.2246 160.87 23.7682 161.329 22.3846C161.673 21.452 162.594 20.8606 163.585 20.936C164.13 20.9083 164.667 21.0722 165.104 21.3993C165.499 21.7298 165.798 22.1601 165.97 22.6455C166.182 23.2341 166.31 23.8494 166.35 24.4734C166.406 25.1701 166.433 25.9059 166.433 26.6811C166.44 27.5335 166.396 28.3856 166.303 29.2329C166.242 29.8508 166.086 30.4555 165.84 31.0253C165.656 31.4554 165.35 31.8226 164.961 32.0819C164.544 32.3252 164.067 32.4446 163.585 32.4261C163.053 32.4531 162.528 32.2936 162.101 31.9751C161.712 31.6508 161.417 31.2287 161.246 30.7524C161.032 30.1675 160.897 29.5568 160.842 28.9364Z" fill="#231F20"/>
<path d="M181.223 28.034H175.857V34.9898H172.605V18.3726H175.857V25.138H181.223V18.3726H184.475V34.9898H181.223V28.034Z" fill="#231F20"/>
<path d="M189.175 32.3783H191.881V20.9837H189.602V23.8562H186.991V18.3726H200V23.8562H197.389V20.9837H195.134V32.3783H197.816V34.9898H189.175V32.3783Z" fill="#231F20"/>
<defs>
<linearGradient id="paint0_linear_1_15" x1="49.8587" y1="0.0819232" x2="49.7741" y2="36.0891" gradientUnits="userSpaceOnUse">
<stop stop-color="#E07053"/>
<stop offset="1" stop-color="#FF8363"/>
</linearGradient>
<linearGradient id="paint1_linear_1_15" x1="38.0411" y1="45.2085" x2="79.3601" y2="69.8053" gradientUnits="userSpaceOnUse">
<stop stop-color="#FF6640"/>
<stop offset="1" stop-color="#D94B27"/>
</linearGradient>
<linearGradient id="paint2_linear_1_15" x1="79.2853" y1="-11.9554" x2="28.3639" y2="31.7381" gradientUnits="userSpaceOnUse">
<stop stop-color="#EB4015"/>
<stop offset="1" stop-color="#D94B27"/>
</linearGradient>
</defs>
</svg>
